<svg xmlns="http://www.w3.org/2000/svg" xmlns:xlink="http://www.w3.org/1999/xlink" width="246" height="70" viewBox="0 0 246 70"><defs><style>.a,.f{fill:#f490a7;}.b,.d{fill:#fff;}.c,.g{fill:none;}.c,.d{stroke-linecap:round;stroke-miterlimit:10;}.d{stroke:#fff;stroke-width:6px;}.e,.f{stroke:none;}.g{clip-path:url(#b);}</style><clipPath id="b"><use xlink:href="#a"/></clipPath></defs><g transform="translate(0 0)"><g transform="translate(0 0)"><circle class="a" cx="35" cy="35" r="35" transform="translate(0 0)"/><rect class="a" width="211" height="70" transform="translate(35 0)"/></g><circle class="b" cx="30.713" cy="30.713" r="30.713" transform="translate(4.388 4.388)"/><g transform="translate(88.427 18.872)"><path class="b" d="M661.39,84.018a8.5,8.5,0,0,1-.75,3.292,11.86,11.86,0,0,1-2.358,3.477,12.029,12.029,0,0,1-4.107,2.771,14.768,14.768,0,0,1-5.824,1.065,20.346,20.346,0,0,1-4.585-.479,12.856,12.856,0,0,1-3.749-1.488,12.65,12.65,0,0,1-3.1-2.662,15.832,15.832,0,0,1-2.152-3.357,17.491,17.491,0,0,1-1.336-3.966,21.6,21.6,0,0,1-.446-4.477,19.869,19.869,0,0,1,1.119-6.889,14.694,14.694,0,0,1,3.206-5.2,13.983,13.983,0,0,1,4.889-3.292,15.843,15.843,0,0,1,5.977-1.13,14.937,14.937,0,0,1,6.889,1.543,12.479,12.479,0,0,1,4.629,3.814,7.533,7.533,0,0,1,1.608,4.292,2.8,2.8,0,0,1-.783,1.956,2.481,2.481,0,0,1-1.891.848,2.607,2.607,0,0,1-1.857-.587,8.1,8.1,0,0,1-1.381-2.021,9.718,9.718,0,0,0-2.966-3.542,7.244,7.244,0,0,0-4.205-1.174,7.62,7.62,0,0,0-6.335,3.02q-2.358,3.021-2.358,8.584a15.947,15.947,0,0,0,1.042,6.182,7.809,7.809,0,0,0,2.956,3.684A8.154,8.154,0,0,0,648,89.495a7.862,7.862,0,0,0,4.705-1.379,8.335,8.335,0,0,0,2.9-4.054,6.877,6.877,0,0,1,1.021-2.053,2.312,2.312,0,0,1,1.956-.793,2.734,2.734,0,0,1,1.977.8A2.677,2.677,0,0,1,661.39,84.018Z" transform="translate(-632.987 -61.679)"/><path class="b" d="M696.46,65.286v8.8a12.706,12.706,0,0,1,2.205-2.065,7.971,7.971,0,0,1,2.38-1.141,9.974,9.974,0,0,1,2.8-.38,8.225,8.225,0,0,1,4.009.956,7.426,7.426,0,0,1,3.6,5.162,18.81,18.81,0,0,1,.217,3.032V91.016a3.928,3.928,0,0,1-.815,2.694,2.758,2.758,0,0,1-2.162.913q-2.934,0-2.934-3.607V81a9.183,9.183,0,0,0-.848-4.379,3.343,3.343,0,0,0-3.216-1.532,4.823,4.823,0,0,0-2.858.9,5.434,5.434,0,0,0-1.9,2.466,15.788,15.788,0,0,0-.478,4.716v7.846a4.006,4.006,0,0,1-.793,2.683,2.752,2.752,0,0,1-2.205.924q-2.934,0-2.934-3.607V65.286a4.074,4.074,0,0,1,.772-2.706,2.692,2.692,0,0,1,2.162-.9,2.768,2.768,0,0,1,2.205.913A4,4,0,0,1,696.46,65.286Z" transform="translate(-656.865 -61.679)"/><path class="b" d="M752.473,90.246h-11.6a7.871,7.871,0,0,0,.814,3.564,5.454,5.454,0,0,0,5.009,3.108,7.128,7.128,0,0,0,1.945-.25,6.319,6.319,0,0,0,1.706-.783,12.955,12.955,0,0,0,1.521-1.141q.7-.607,1.8-1.651a1.946,1.946,0,0,1,1.3-.391,2.15,2.15,0,0,1,1.478.5,1.788,1.788,0,0,1,.565,1.412,3.859,3.859,0,0,1-.631,1.88,7.45,7.45,0,0,1-1.9,2.065,10.829,10.829,0,0,1-3.195,1.64,13.754,13.754,0,0,1-4.422.652q-5.715,0-8.888-3.26t-3.173-8.844a14.746,14.746,0,0,1,.783-4.878,10.749,10.749,0,0,1,2.281-3.858,9.9,9.9,0,0,1,3.694-2.466,13.267,13.267,0,0,1,4.868-.859,11.54,11.54,0,0,1,5.965,1.467,9.651,9.651,0,0,1,3.727,3.792,9.976,9.976,0,0,1,1.239,4.737q0,2.239-1.282,2.9A7.989,7.989,0,0,1,752.473,90.246Zm-11.6-3.368h10.757a7.213,7.213,0,0,0-1.641-4.553,4.912,4.912,0,0,0-3.749-1.51,4.749,4.749,0,0,0-3.64,1.532A7.624,7.624,0,0,0,740.869,86.878Z" transform="translate(-675.241 -67.906)"/><path class="b" d="M797.68,90.246h-11.6a7.864,7.864,0,0,0,.815,3.564,5.452,5.452,0,0,0,5.009,3.108,7.129,7.129,0,0,0,1.945-.25,6.318,6.318,0,0,0,1.706-.783,12.956,12.956,0,0,0,1.521-1.141q.7-.607,1.8-1.651a1.948,1.948,0,0,1,1.3-.391,2.149,2.149,0,0,1,1.478.5,1.788,1.788,0,0,1,.565,1.412,3.858,3.858,0,0,1-.631,1.88,7.448,7.448,0,0,1-1.9,2.065,10.828,10.828,0,0,1-3.195,1.64,13.754,13.754,0,0,1-4.422.652q-5.715,0-8.887-3.26t-3.173-8.844a14.746,14.746,0,0,1,.783-4.878,10.748,10.748,0,0,1,2.281-3.858,9.9,9.9,0,0,1,3.694-2.466,13.266,13.266,0,0,1,4.868-.859,11.541,11.541,0,0,1,5.965,1.467,9.65,9.65,0,0,1,3.727,3.792,9.977,9.977,0,0,1,1.239,4.737q0,2.239-1.282,2.9A7.989,7.989,0,0,1,797.68,90.246Zm-11.6-3.368h10.757a7.213,7.213,0,0,0-1.641-4.553,4.912,4.912,0,0,0-3.749-1.51,4.75,4.75,0,0,0-3.64,1.532A7.624,7.624,0,0,0,786.076,86.878Z" transform="translate(-694.001 -67.906)"/><path class="b" d="M832.973,92.32v4.955a3.821,3.821,0,0,1-.848,2.705,2.825,2.825,0,0,1-2.151.9,2.717,2.717,0,0,1-2.108-.913,3.894,3.894,0,0,1-.826-2.694V80.759q0-4,2.89-4a2.414,2.414,0,0,1,2.13.934,5.158,5.158,0,0,1,.717,2.76,10.378,10.378,0,0,1,2.184-2.76,4.514,4.514,0,0,1,2.988-.934,7.657,7.657,0,0,1,3.63.934,2.792,2.792,0,0,1,1.76,2.478,2.356,2.356,0,0,1-.75,1.793,2.325,2.325,0,0,1-1.618.706,7.448,7.448,0,0,1-1.576-.4,7.332,7.332,0,0,0-2.206-.4,3.223,3.223,0,0,0-2.13.685,4.389,4.389,0,0,0-1.282,2.032,14.171,14.171,0,0,0-.63,3.205Q832.972,89.646,832.973,92.32Z" transform="translate(-713.516 -67.937)"/></g><g transform="translate(10.867 22.422)"><path class="a" d="M537.917,92l-31.889-5.858V74.5l31.889-5.9Z" transform="translate(-502.741 -68.101)"/><rect class="a" width="2.117" height="11.623" rx="1.059" transform="translate(0 6.387)"/><rect class="a" width="5.85" height="1.17" rx="0.585" transform="translate(39.403 3.876) rotate(-27.996)"/><g class="c" transform="translate(-505.39 -78.773)"><path class="e" d="M522.884,104.13l-10.473-2.3.321-7.512L525.387,97.1Z"/><path class="f" d="M 521.2677612304688 101.2153396606445 L 522.0810546875 98.930419921875 L 515.1026000976562 97.39687347412109 L 514.9981689453125 99.83757019042969 L 521.2677612304688 101.2153396606445 M 522.8839111328125 104.1301498413086 L 512.4107055664062 101.8286209106445 L 512.7321166992188 94.31629180908203 L 525.38720703125 97.09729766845703 L 522.8839111328125 104.1301498413086 Z"/></g><rect class="a" width="5.85" height="1.17" rx="0.585" transform="translate(40.841 11.028)"/><rect class="a" width="5.85" height="1.17" rx="0.585" transform="translate(40.02 18.481) rotate(30)"/><g class="d" transform="translate(31.709 0)"><rect id="a" class="e" width="1.17" height="24.987"/><path class="g" d="M0,3h1.1700260639190674M3,0v24.98703384399414M1.1700260639190674,21.98703384399414h-1.1700260639190674M-1.8299739360809326,24.98703384399414v-24.98703384399414"/></g></g></g></svg>