<svg xmlns="http://www.w3.org/2000/svg" width="19.706" height="22.692" viewBox="0 0 19.706 22.692">
  <g id="keyIcon" transform="translate(-33.684 0)">
    <path id="パス_3" data-name="パス 3" d="M51.393,7.353A3.933,3.933,0,1,0,46.037,2l-.01-.011A3.933,3.933,0,1,0,42.379,8.6l-8.311,8.311a1.311,1.311,0,0,0,0,1.854l.556.556a1.311,1.311,0,0,0,1.854,0l8.311-8.311A3.932,3.932,0,1,0,51.4,7.363ZM44.261,5.782a1.435,1.435,0,1,1,0-2.029A1.435,1.435,0,0,1,44.261,5.782Zm5.377,5.377a1.435,1.435,0,1,1,0-2.029A1.435,1.435,0,0,1,49.637,11.159Zm.835-6.211a1.435,1.435,0,1,1,0-2.029A1.435,1.435,0,0,1,50.472,4.948Z" fill="#4e793a"/>
    <path id="パス_4" data-name="パス 4" d="M108.8,356.5l-4.079,4.079,2.7,2.7a.372.372,0,0,0,.526,0l.834-.834a.372.372,0,0,0,0-.526l-1.1-1.1,1.36-1.359,1.1,1.1a.372.372,0,0,0,.526,0l.834-.834a.372.372,0,0,0,0-.525Z" transform="translate(-67.889 -340.701)" fill="#4e793a"/>
  </g>
</svg>
